<mxfile host="app.diagrams.net" modified="2023-07-26T01:40:35.652Z" agent="Mozilla/5.0 (Macintosh; Intel Mac OS X 10_15_7) AppleWebKit/537.36 (KHTML, like Gecko) Chrome/114.0.0.0 Safari/537.36" etag="WI_fljPx59DipB-p2d30" version="21.6.5" type="device">
  <diagram id="C5RBs43oDa-KdzZeNtuy" name="Page-1">
    <mxGraphModel dx="871" dy="495" grid="1" gridSize="10" guides="1" tooltips="1" connect="1" arrows="1" fold="1" page="1" pageScale="1" pageWidth="1169" pageHeight="827" math="0" shadow="0">
      <root>
        <mxCell id="WIyWlLk6GJQsqaUBKTNV-0" />
        <mxCell id="WIyWlLk6GJQsqaUBKTNV-1" parent="WIyWlLk6GJQsqaUBKTNV-0" />
        <mxCell id="oGTvxkCGRM0-UOw6SrDC-12" style="edgeStyle=orthogonalEdgeStyle;rounded=0;orthogonalLoop=1;jettySize=auto;html=1;entryX=0.5;entryY=1;entryDx=0;entryDy=0;endArrow=block;endFill=0;dashed=1;dashPattern=8 8;" edge="1" parent="WIyWlLk6GJQsqaUBKTNV-1" source="oGTvxkCGRM0-UOw6SrDC-0" target="oGTvxkCGRM0-UOw6SrDC-4">
          <mxGeometry relative="1" as="geometry" />
        </mxCell>
        <mxCell id="oGTvxkCGRM0-UOw6SrDC-0" value="PlayerImpl" style="swimlane;fontStyle=1;align=center;verticalAlign=top;childLayout=stackLayout;horizontal=1;startSize=26;horizontalStack=0;resizeParent=1;resizeParentMax=0;resizeLast=0;collapsible=1;marginBottom=0;whiteSpace=wrap;html=1;" vertex="1" parent="WIyWlLk6GJQsqaUBKTNV-1">
          <mxGeometry x="610" y="320" width="250" height="380" as="geometry" />
        </mxCell>
        <mxCell id="oGTvxkCGRM0-UOw6SrDC-1" value="&lt;div&gt;- firstName: String&lt;/div&gt;&lt;div&gt;- lastName: String&lt;/div&gt;&lt;div&gt;- yearOfDOB: int&lt;/div&gt;&lt;div&gt;- monthOfDOB: int&lt;/div&gt;&lt;div&gt;- dayOfDOB: int&lt;/div&gt;&lt;div&gt;- preferredPosition: Position&lt;/div&gt;&lt;div&gt;- assignedPosition: Position&lt;/div&gt;&lt;div&gt;- skillLevel: int&lt;/div&gt;&lt;div&gt;- jerseyNumber: int&lt;/div&gt;" style="text;strokeColor=none;fillColor=none;align=left;verticalAlign=top;spacingLeft=4;spacingRight=4;overflow=hidden;rotatable=0;points=[[0,0.5],[1,0.5]];portConstraint=eastwest;whiteSpace=wrap;html=1;" vertex="1" parent="oGTvxkCGRM0-UOw6SrDC-0">
          <mxGeometry y="26" width="250" height="144" as="geometry" />
        </mxCell>
        <mxCell id="oGTvxkCGRM0-UOw6SrDC-2" value="" style="line;strokeWidth=1;fillColor=none;align=left;verticalAlign=middle;spacingTop=-1;spacingLeft=3;spacingRight=3;rotatable=0;labelPosition=right;points=[];portConstraint=eastwest;strokeColor=inherit;" vertex="1" parent="oGTvxkCGRM0-UOw6SrDC-0">
          <mxGeometry y="170" width="250" height="8" as="geometry" />
        </mxCell>
        <mxCell id="oGTvxkCGRM0-UOw6SrDC-3" value="&lt;div&gt;+ setFirstName(firstName: String): void&lt;/div&gt;&lt;div&gt;+ setLastName(lastName: String): void&lt;/div&gt;&lt;div&gt;+ setDOB(year: int, month: int, day: int): void&lt;/div&gt;&lt;div&gt;+ setPreferredPosition(preferredPosition: Position): void&lt;/div&gt;&lt;div&gt;+ setSkillLevel(skillLevel: int): void&lt;/div&gt;&lt;div&gt;- setAssignedPosition(assignedPosition: Position): void&lt;/div&gt;&lt;div&gt;- setJerseyNumber(jerseyNumber: int): void&lt;/div&gt;&lt;div&gt;- getYearOfDOB(): int&lt;/div&gt;&lt;div&gt;- getMonthOfDOB(): int&lt;/div&gt;&lt;div&gt;- getDayOfDOB(): int&lt;br&gt;- isUnderTenYearsOld(): boolean&lt;br&gt;&lt;/div&gt;" style="text;strokeColor=none;fillColor=none;align=left;verticalAlign=top;spacingLeft=4;spacingRight=4;overflow=hidden;rotatable=0;points=[[0,0.5],[1,0.5]];portConstraint=eastwest;whiteSpace=wrap;html=1;" vertex="1" parent="oGTvxkCGRM0-UOw6SrDC-0">
          <mxGeometry y="178" width="250" height="202" as="geometry" />
        </mxCell>
        <mxCell id="oGTvxkCGRM0-UOw6SrDC-4" value="&lt;p style=&quot;margin:0px;margin-top:4px;text-align:center;&quot;&gt;&lt;i&gt;&amp;lt;&amp;lt;Interface&amp;gt;&amp;gt;&lt;/i&gt;&lt;br&gt;&lt;/p&gt;&lt;p style=&quot;margin:0px;margin-top:4px;text-align:center;&quot;&gt;&lt;i&gt;&lt;b&gt;Player&lt;/b&gt;&lt;/i&gt;&lt;/p&gt;&lt;hr size=&quot;1&quot;&gt;&lt;p style=&quot;margin:0px;margin-left:4px;&quot;&gt;getFirstName(): String&lt;/p&gt;&lt;p style=&quot;margin:0px;margin-left:4px;&quot;&gt;getLastName(): String&lt;/p&gt;&lt;p style=&quot;margin:0px;margin-left:4px;&quot;&gt;getDOB(): String&lt;/p&gt;&lt;p style=&quot;margin:0px;margin-left:4px;&quot;&gt;getPreferredPosition(): Position&lt;/p&gt;&lt;p style=&quot;margin:0px;margin-left:4px;&quot;&gt;getSkillLevel(): int&lt;/p&gt;&lt;p style=&quot;margin:0px;margin-left:4px;&quot;&gt;getJerseyNumber(): int&lt;/p&gt;&lt;p style=&quot;margin:0px;margin-left:4px;&quot;&gt;getAssignedPosition(): Position&lt;/p&gt;" style="verticalAlign=top;align=left;overflow=fill;fontSize=12;fontFamily=Helvetica;html=1;whiteSpace=wrap;" vertex="1" parent="WIyWlLk6GJQsqaUBKTNV-1">
          <mxGeometry x="610" y="60" width="250" height="160" as="geometry" />
        </mxCell>
        <mxCell id="oGTvxkCGRM0-UOw6SrDC-6" value="&lt;p style=&quot;margin:0px;margin-top:4px;text-align:center;&quot;&gt;&lt;i&gt;&amp;lt;&amp;lt;Enum&amp;gt;&amp;gt;&lt;/i&gt;&lt;br&gt;&lt;b&gt;Position&lt;/b&gt;&lt;/p&gt;&lt;hr size=&quot;1&quot;&gt;&lt;p style=&quot;margin:0px;margin-left:4px;&quot;&gt;&amp;nbsp; GOALIE,&lt;/p&gt;&lt;p style=&quot;margin:0px;margin-left:4px;&quot;&gt;&amp;nbsp; DEFENDERS,&lt;/p&gt;&lt;p style=&quot;margin:0px;margin-left:4px;&quot;&gt;&amp;nbsp; MIDFIELDERS,&lt;/p&gt;&lt;p style=&quot;margin:0px;margin-left:4px;&quot;&gt;&amp;nbsp; FORWARD,&lt;/p&gt;&lt;p style=&quot;margin:0px;margin-left:4px;&quot;&gt;&amp;nbsp; BENCH&lt;/p&gt;" style="verticalAlign=top;align=left;overflow=fill;fontSize=12;fontFamily=Helvetica;html=1;whiteSpace=wrap;" vertex="1" parent="WIyWlLk6GJQsqaUBKTNV-1">
          <mxGeometry x="1000" y="358.63" width="106" height="126.75" as="geometry" />
        </mxCell>
        <mxCell id="oGTvxkCGRM0-UOw6SrDC-7" style="edgeStyle=orthogonalEdgeStyle;rounded=0;orthogonalLoop=1;jettySize=auto;html=1;entryX=0;entryY=0.5;entryDx=0;entryDy=0;" edge="1" parent="WIyWlLk6GJQsqaUBKTNV-1" source="oGTvxkCGRM0-UOw6SrDC-1" target="oGTvxkCGRM0-UOw6SrDC-6">
          <mxGeometry relative="1" as="geometry">
            <Array as="points">
              <mxPoint x="935" y="422" />
            </Array>
          </mxGeometry>
        </mxCell>
        <mxCell id="oGTvxkCGRM0-UOw6SrDC-8" value="&lt;p style=&quot;margin:0px;margin-top:4px;text-align:center;&quot;&gt;&lt;i&gt;&amp;lt;&amp;lt;Interface&amp;gt;&amp;gt;&lt;/i&gt;&lt;br&gt;&lt;b&gt;Team&lt;/b&gt;&lt;/p&gt;&lt;hr size=&quot;1&quot;&gt;&lt;p style=&quot;margin:0px;margin-left:4px;&quot;&gt;addPlayer(player: Player): void&lt;/p&gt;&lt;p style=&quot;margin:0px;margin-left:4px;&quot;&gt;removePlayer(player: Player): void&lt;/p&gt;&lt;p style=&quot;margin:0px;margin-left:4px;&quot;&gt;getPlayers(): List&amp;lt;Player&amp;gt;&lt;/p&gt;&lt;p style=&quot;margin:0px;margin-left:4px;&quot;&gt;getStartingLineup(): List&amp;lt;Player&amp;gt;&lt;/p&gt;&lt;p style=&quot;margin:0px;margin-left:4px;&quot;&gt;&lt;br&gt;&lt;/p&gt;" style="verticalAlign=top;align=left;overflow=fill;fontSize=12;fontFamily=Helvetica;html=1;whiteSpace=wrap;" vertex="1" parent="WIyWlLk6GJQsqaUBKTNV-1">
          <mxGeometry x="160" y="60" width="230" height="110" as="geometry" />
        </mxCell>
        <mxCell id="oGTvxkCGRM0-UOw6SrDC-11" style="edgeStyle=orthogonalEdgeStyle;rounded=0;orthogonalLoop=1;jettySize=auto;html=1;entryX=0.5;entryY=1;entryDx=0;entryDy=0;endArrow=block;endFill=0;dashed=1;dashPattern=8 8;strokeWidth=1;" edge="1" parent="WIyWlLk6GJQsqaUBKTNV-1" source="oGTvxkCGRM0-UOw6SrDC-10" target="oGTvxkCGRM0-UOw6SrDC-8">
          <mxGeometry relative="1" as="geometry" />
        </mxCell>
        <mxCell id="oGTvxkCGRM0-UOw6SrDC-13" style="edgeStyle=orthogonalEdgeStyle;rounded=0;orthogonalLoop=1;jettySize=auto;html=1;entryX=0;entryY=0.5;entryDx=0;entryDy=0;" edge="1" parent="WIyWlLk6GJQsqaUBKTNV-1" source="oGTvxkCGRM0-UOw6SrDC-10" target="oGTvxkCGRM0-UOw6SrDC-4">
          <mxGeometry relative="1" as="geometry" />
        </mxCell>
        <mxCell id="oGTvxkCGRM0-UOw6SrDC-10" value="&lt;p style=&quot;margin:0px;margin-top:4px;text-align:center;&quot;&gt;&lt;b&gt;TeamImpl&lt;/b&gt;&lt;/p&gt;&lt;hr size=&quot;1&quot;&gt;&lt;p style=&quot;margin:0px;margin-left:4px;&quot;&gt;&lt;/p&gt;&amp;nbsp;- players: List&amp;lt;Player&amp;gt;&lt;br&gt;&lt;hr&gt;&lt;p style=&quot;margin:0px;margin-left:4px;&quot;&gt;&lt;span style=&quot;background-color: initial;&quot;&gt;+ generateStartingLineup(): void&lt;/span&gt;&lt;br&gt;&lt;/p&gt;&lt;p style=&quot;margin:0px;margin-left:4px;&quot;&gt;&lt;span style=&quot;background-color: initial;&quot;&gt;- sortPlayersBySkill(): void&lt;br&gt;&lt;/span&gt;&lt;/p&gt;&lt;p style=&quot;margin:0px;margin-left:4px;&quot;&gt;- assignPositions(): void&lt;/p&gt;&lt;p style=&quot;margin:0px;margin-left:4px;&quot;&gt;- assignJerseyNumbers(): void&lt;/p&gt;&lt;p style=&quot;margin:0px;margin-left:4px;&quot;&gt;- validateTeam(): boolean&lt;/p&gt;&lt;p style=&quot;margin:0px;margin-left:4px;&quot;&gt;- assignPlayerToPosition(player: Player, position: Position): void&lt;/p&gt;&lt;p style=&quot;margin:0px;margin-left:4px;&quot;&gt;- isTeamSizeValid(SIZE : int): boolean&lt;/p&gt;&lt;p style=&quot;margin:0px;margin-left:4px;&quot;&gt;- areAllPlayersUnderTen(): boolean&lt;/p&gt;&lt;p style=&quot;margin:0px;margin-left:4px;&quot;&gt;- areJerseyNumbersValid(): boolean&lt;/p&gt;&lt;p style=&quot;margin:0px;margin-left:4px;&quot;&gt;- isStartingLineupValid(): boolean&lt;/p&gt;" style="verticalAlign=top;align=left;overflow=fill;fontSize=12;fontFamily=Helvetica;html=1;whiteSpace=wrap;" vertex="1" parent="WIyWlLk6GJQsqaUBKTNV-1">
          <mxGeometry x="160" y="320" width="230" height="231" as="geometry" />
        </mxCell>
        <mxCell id="oGTvxkCGRM0-UOw6SrDC-14" style="edgeStyle=orthogonalEdgeStyle;rounded=0;orthogonalLoop=1;jettySize=auto;html=1;exitX=0.5;exitY=1;exitDx=0;exitDy=0;" edge="1" parent="WIyWlLk6GJQsqaUBKTNV-1" source="oGTvxkCGRM0-UOw6SrDC-8" target="oGTvxkCGRM0-UOw6SrDC-8">
          <mxGeometry relative="1" as="geometry" />
        </mxCell>
      </root>
    </mxGraphModel>
  </diagram>
</mxfile>
